<svg width="177" height="48" viewBox="0 0 177 48" fill="none" xmlns="http://www.w3.org/2000/svg">
<path d="M22.4501 21.05C23.1501 21.05 23.742 20.808 24.226 20.324C24.71 19.84 24.9514 19.2487 24.9501 18.55C24.9487 17.8513 24.7074 17.2593 24.226 16.774C23.7447 16.2887 23.1527 16.0473 22.4501 16.05C21.7474 16.0527 21.156 16.2947 20.676 16.776C20.196 17.2573 19.954 17.8487 19.95 18.55C19.946 19.2513 20.188 19.8433 20.676 20.326C21.164 20.8087 21.7554 21.05 22.4501 21.05ZM41.1 44C39.7 44 37.8167 43.4167 35.4501 42.25C33.0834 41.0833 30.55 39.5 27.85 37.5C27.2167 37.6667 26.5754 37.792 25.926 37.876C25.2767 37.96 24.618 38.0013 23.9501 38C20.0501 38 16.75 36.65 14.05 33.95C11.35 31.25 10 27.95 10 24.05C10 23.3833 10.05 22.7167 10.15 22.05C10.25 21.3833 10.3834 20.7333 10.55 20.1C8.58338 17.4 7.00872 14.8753 5.82605 12.526C4.64338 10.1767 4.05138 8.30134 4.05005 6.9C4.05005 6 4.30005 5.292 4.80005 4.776C5.30005 4.26 5.98338 4.00134 6.85005 4C7.71672 3.99867 8.84205 4.29867 10.226 4.9C11.61 5.50134 13.518 6.518 15.95 7.95C15.25 8.31667 14.6 8.7 14 9.1C13.4 9.5 12.8167 9.93334 12.25 10.4C11.6167 10.0333 11 9.71667 10.4 9.45C9.80005 9.18334 9.16672 8.9 8.50005 8.6C9.10005 9.86667 9.74205 11.1 10.426 12.3C11.11 13.5 11.8347 14.6833 12.6 15.85C13.8667 14.05 15.4834 12.6333 17.45 11.6C19.4167 10.5667 21.5834 10.05 23.9501 10.05C27.85 10.05 31.1587 11.4087 33.876 14.126C36.5934 16.8433 37.9514 20.1513 37.9501 24.05C37.9501 26.4167 37.4247 28.5833 36.3741 30.55C35.3234 32.5167 33.8987 34.1333 32.1 35.4C33.2667 36.1667 34.4587 36.9 35.676 37.6C36.8934 38.3 38.1347 38.9333 39.4001 39.5C39.1334 38.8667 38.8587 38.25 38.576 37.65C38.2934 37.05 37.968 36.4333 37.6 35.8C38.1 35.2333 38.55 34.6333 38.9501 34C39.3501 33.3667 39.7167 32.7167 40.05 32.05C41.5834 34.65 42.6254 36.592 43.176 37.876C43.7267 39.16 44.0014 40.2347 44 41.1C44 42.0667 43.7334 42.792 43.2001 43.276C42.6667 43.76 41.9667 44.0013 41.1 44ZM27.4501 30.05C28.0167 30.05 28.492 29.858 28.876 29.474C29.26 29.09 29.4514 28.6153 29.4501 28.05C29.4487 27.4847 29.2574 27.01 28.876 26.626C28.4947 26.242 28.0194 26.05 27.4501 26.05C26.8807 26.05 26.406 26.242 26.026 26.626C25.646 27.01 25.4541 27.4847 25.4501 28.05C25.4461 28.6153 25.638 29.0907 26.026 29.476C26.414 29.8613 26.8887 30.0527 27.4501 30.05ZM29.9501 23.05C30.3834 23.05 30.742 22.908 31.026 22.624C31.31 22.34 31.4514 21.982 31.4501 21.55C31.4487 21.118 31.3074 20.76 31.026 20.476C30.7447 20.192 30.3861 20.05 29.9501 20.05C29.514 20.05 29.156 20.192 28.876 20.476C28.596 20.76 28.4541 21.118 28.4501 21.55C28.4461 21.982 28.588 22.3407 28.876 22.626C29.164 22.9113 29.5221 23.0527 29.9501 23.05Z" fill="#FEFEFE"/>
<path d="M64.4125 31.4715C64.2035 31.5095 63.89 31.557 63.472 31.614C63.073 31.69 62.6645 31.728 62.2465 31.728C61.8285 31.728 61.4485 31.6995 61.1065 31.6425C60.7835 31.5855 60.508 31.4715 60.28 31.3005C60.052 31.1295 59.8715 30.9015 59.7385 30.6165C59.6245 30.3125 59.5675 29.923 59.5675 29.448V12.918C59.7765 12.88 60.0805 12.8325 60.4795 12.7755C60.8975 12.6995 61.3155 12.6615 61.7335 12.6615C62.1515 12.6615 62.522 12.69 62.845 12.747C63.187 12.804 63.472 12.918 63.7 13.089C63.928 13.26 64.099 13.4975 64.213 13.8015C64.346 14.0865 64.4125 14.4665 64.4125 14.9415V31.4715ZM67.3558 13.8015C67.3558 13.0795 67.5933 12.4715 68.0683 11.9775C68.5623 11.4835 69.2083 11.2365 70.0063 11.2365C70.8043 11.2365 71.4408 11.4835 71.9158 11.9775C72.4098 12.4715 72.6568 13.0795 72.6568 13.8015C72.6568 14.5235 72.4098 15.1315 71.9158 15.6255C71.4408 16.1195 70.8043 16.3665 70.0063 16.3665C69.2083 16.3665 68.5623 16.1195 68.0683 15.6255C67.5933 15.1315 67.3558 14.5235 67.3558 13.8015ZM72.4288 31.4715C72.2198 31.5095 71.9063 31.557 71.4883 31.614C71.0893 31.69 70.6808 31.728 70.2628 31.728C69.8448 31.728 69.4648 31.6995 69.1228 31.6425C68.7998 31.5855 68.5243 31.4715 68.2963 31.3005C68.0683 31.1295 67.8878 30.9015 67.7548 30.6165C67.6408 30.3125 67.5838 29.923 67.5838 29.448V17.8485C67.7928 17.8105 68.0968 17.763 68.4958 17.706C68.9138 17.63 69.3318 17.592 69.7498 17.592C70.1678 17.592 70.5383 17.6205 70.8613 17.6775C71.2033 17.7345 71.4883 17.8485 71.7163 18.0195C71.9443 18.1905 72.1153 18.428 72.2293 18.732C72.3623 19.017 72.4288 19.397 72.4288 19.872V31.4715ZM82.2678 17.2215C83.3508 17.2215 84.3293 17.364 85.2033 17.649C86.0963 17.915 86.8468 18.2665 87.4548 18.7035C87.8348 18.9695 88.1293 19.264 88.3383 19.587C88.5663 19.91 88.6802 20.328 88.6802 20.841V30.816C88.6802 31.823 88.4903 32.6875 88.1103 33.4095C87.7303 34.1505 87.2078 34.7585 86.5428 35.2335C85.8968 35.7275 85.1273 36.0885 84.2343 36.3165C83.3603 36.5445 82.4198 36.6585 81.4128 36.6585C79.6838 36.6585 78.3253 36.421 77.3373 35.946C76.3493 35.49 75.8553 34.7395 75.8553 33.6945C75.8553 33.2575 75.9408 32.868 76.1118 32.526C76.3018 32.203 76.5108 31.956 76.7388 31.785C77.2898 32.089 77.9073 32.3455 78.5913 32.5545C79.2943 32.7635 80.0163 32.868 80.7573 32.868C81.7833 32.868 82.6003 32.697 83.2083 32.355C83.8163 32.013 84.1203 31.462 84.1203 30.702V30.246C83.3413 30.588 82.3913 30.759 81.2703 30.759C80.4153 30.759 79.5983 30.6355 78.8193 30.3885C78.0593 30.1225 77.3848 29.7235 76.7958 29.1915C76.2258 28.6405 75.7603 27.9375 75.3993 27.0825C75.0573 26.2275 74.8863 25.211 74.8863 24.033C74.8863 22.874 75.0668 21.867 75.4278 21.012C75.8078 20.157 76.3208 19.454 76.9668 18.903C77.6318 18.333 78.4108 17.915 79.3038 17.649C80.2158 17.364 81.2038 17.2215 82.2678 17.2215ZM84.0348 21.354C83.9018 21.278 83.7023 21.202 83.4363 21.126C83.1893 21.05 82.8758 21.012 82.4958 21.012C81.5648 21.012 80.8618 21.278 80.3868 21.81C79.9308 22.323 79.7028 23.064 79.7028 24.033C79.7028 25.135 79.9308 25.933 80.3868 26.427C80.8618 26.902 81.4603 27.1395 82.1823 27.1395C82.9613 27.1395 83.5788 26.959 84.0348 26.598V21.354ZM105.364 31.4715C105.174 31.5285 104.87 31.5855 104.452 31.6425C104.053 31.6995 103.635 31.728 103.198 31.728C102.78 31.728 102.4 31.6995 102.058 31.6425C101.735 31.5855 101.459 31.4715 101.231 31.3005C101.003 31.1295 100.823 30.9015 100.69 30.6165C100.576 30.3125 100.519 29.923 100.519 29.448V23.121C100.519 22.342 100.319 21.8005 99.9202 21.4965C99.5402 21.1735 99.0652 21.012 98.4952 21.012C98.1152 21.012 97.7542 21.0595 97.4122 21.1545C97.0702 21.2495 96.7947 21.3635 96.5857 21.4965V31.4715C96.3957 31.5285 96.0917 31.5855 95.6737 31.6425C95.2747 31.6995 94.8567 31.728 94.4197 31.728C94.0017 31.728 93.6217 31.6995 93.2797 31.6425C92.9567 31.5855 92.6812 31.4715 92.4532 31.3005C92.2252 31.1295 92.0447 30.9015 91.9117 30.6165C91.7977 30.3125 91.7407 29.923 91.7407 29.448V12.918C91.9497 12.88 92.2537 12.8325 92.6527 12.7755C93.0707 12.6995 93.4887 12.6615 93.9067 12.6615C94.3247 12.6615 94.6952 12.69 95.0182 12.747C95.3602 12.804 95.6452 12.918 95.8732 13.089C96.1012 13.26 96.2722 13.4975 96.3862 13.8015C96.5192 14.0865 96.5857 14.4665 96.5857 14.9415V17.7345C96.8327 17.6395 97.2032 17.535 97.6972 17.421C98.2102 17.288 98.7707 17.2215 99.3787 17.2215C101.26 17.2215 102.723 17.6965 103.768 18.6465C104.832 19.5775 105.364 20.974 105.364 22.836V31.4715ZM113.2 26.7405C113.2 27.2345 113.352 27.586 113.656 27.795C113.979 28.004 114.426 28.1085 114.996 28.1085C115.281 28.1085 115.575 28.0895 115.879 28.0515C116.183 27.9945 116.449 27.928 116.677 27.852C116.848 28.061 116.991 28.2985 117.105 28.5645C117.238 28.8115 117.304 29.1155 117.304 29.4765C117.304 30.1985 117.029 30.7875 116.478 31.2435C115.946 31.6995 114.996 31.9275 113.628 31.9275C111.956 31.9275 110.664 31.5475 109.752 30.7875C108.859 30.0275 108.412 28.7925 108.412 27.0825V14.8845C108.621 14.8275 108.916 14.7705 109.296 14.7135C109.695 14.6375 110.113 14.5995 110.55 14.5995C111.386 14.5995 112.032 14.7515 112.488 15.0555C112.963 15.3405 113.2 15.958 113.2 16.908V18.732H116.934C117.048 18.941 117.152 19.207 117.247 19.53C117.361 19.834 117.418 20.176 117.418 20.556C117.418 21.221 117.266 21.7055 116.962 22.0095C116.677 22.2945 116.288 22.437 115.794 22.437H113.2V26.7405ZM121.932 27.966C121.723 27.491 121.495 26.959 121.248 26.37C121.02 25.781 120.773 25.1065 120.507 24.3465C120.26 23.5865 119.994 22.722 119.709 21.753C119.443 20.765 119.158 19.6345 118.854 18.3615C119.12 18.0955 119.472 17.8675 119.909 17.6775C120.365 17.4685 120.859 17.364 121.391 17.364C122.056 17.364 122.607 17.5065 123.044 17.7915C123.481 18.0575 123.804 18.5705 124.013 19.3305L126.264 27.168H126.378C126.606 26.522 126.825 25.819 127.034 25.059C127.262 24.299 127.48 23.52 127.689 22.722C127.898 21.905 128.088 21.0975 128.259 20.2995C128.449 19.4825 128.611 18.6845 128.744 17.9055C129.428 17.5445 130.178 17.364 130.995 17.364C131.66 17.364 132.211 17.5065 132.648 17.7915C133.085 18.0765 133.304 18.5705 133.304 19.2735C133.304 19.7865 133.237 20.385 133.104 21.069C132.971 21.734 132.791 22.4465 132.563 23.2065C132.354 23.9665 132.097 24.755 131.793 25.572C131.508 26.37 131.204 27.1585 130.881 27.9375C130.558 28.7165 130.226 29.4575 129.884 30.1605C129.542 30.8445 129.209 31.462 128.886 32.013C128.354 32.944 127.86 33.704 127.404 34.293C126.948 34.882 126.511 35.338 126.093 35.661C125.675 36.003 125.257 36.231 124.839 36.345C124.421 36.478 123.984 36.5445 123.528 36.5445C122.73 36.5445 122.084 36.307 121.59 35.832C121.096 35.357 120.802 34.7395 120.707 33.9795C121.315 33.5045 121.923 32.9725 122.531 32.3835C123.139 31.8135 123.69 31.2245 124.184 30.6165C123.861 30.5215 123.509 30.303 123.129 29.961C122.768 29.6 122.369 28.935 121.932 27.966ZM142.649 31.956C141.528 31.956 140.483 31.804 139.514 31.5C138.564 31.177 137.728 30.702 137.006 30.075C136.303 29.448 135.742 28.6595 135.324 27.7095C134.925 26.7595 134.726 25.648 134.726 24.375C134.726 23.121 134.925 22.0475 135.324 21.1545C135.742 20.2425 136.284 19.5015 136.949 18.9315C137.614 18.3425 138.374 17.915 139.229 17.649C140.084 17.364 140.958 17.2215 141.851 17.2215C142.858 17.2215 143.77 17.3735 144.587 17.6775C145.423 17.9815 146.135 18.3995 146.724 18.9315C147.332 19.4635 147.798 20.1 148.121 20.841C148.463 21.582 148.634 22.3895 148.634 23.2635C148.634 23.9095 148.453 24.4035 148.092 24.7455C147.731 25.0875 147.228 25.306 146.582 25.401L139.542 26.4555C139.751 27.0825 140.179 27.5575 140.825 27.8805C141.471 28.1845 142.212 28.3365 143.048 28.3365C143.827 28.3365 144.558 28.2415 145.242 28.0515C145.945 27.8425 146.515 27.605 146.952 27.339C147.256 27.529 147.513 27.795 147.722 28.137C147.931 28.479 148.035 28.84 148.035 29.22C148.035 30.075 147.636 30.7115 146.838 31.1295C146.23 31.4525 145.546 31.671 144.786 31.785C144.026 31.899 143.314 31.956 142.649 31.956ZM141.851 20.7555C141.395 20.7555 140.996 20.8315 140.654 20.9835C140.331 21.1355 140.065 21.335 139.856 21.582C139.647 21.81 139.485 22.076 139.371 22.38C139.276 22.665 139.219 22.9595 139.2 23.2635L144.074 22.4655C144.017 22.0855 143.808 21.7055 143.447 21.3255C143.086 20.9455 142.554 20.7555 141.851 20.7555ZM156.894 28.422C157.217 28.422 157.568 28.3935 157.948 28.3365C158.347 28.2605 158.642 28.1655 158.832 28.0515V25.7715L156.78 25.9425C156.248 25.9805 155.811 26.0945 155.469 26.2845C155.127 26.4745 154.956 26.7595 154.956 27.1395C154.956 27.5195 155.098 27.833 155.383 28.08C155.687 28.308 156.191 28.422 156.894 28.422ZM156.666 17.2215C157.692 17.2215 158.623 17.326 159.459 17.535C160.314 17.744 161.036 18.067 161.625 18.504C162.233 18.922 162.698 19.4635 163.021 20.1285C163.344 20.7745 163.506 21.544 163.506 22.437V28.821C163.506 29.315 163.363 29.7235 163.078 30.0465C162.812 30.3505 162.489 30.6165 162.109 30.8445C160.874 31.5855 159.136 31.956 156.894 31.956C155.887 31.956 154.975 31.861 154.158 31.671C153.36 31.481 152.666 31.196 152.077 30.816C151.507 30.436 151.061 29.9515 150.738 29.3625C150.434 28.7735 150.282 28.0895 150.282 27.3105C150.282 25.9995 150.671 24.9925 151.45 24.2895C152.229 23.5865 153.436 23.1495 155.07 22.9785L158.803 22.5795V22.38C158.803 21.829 158.556 21.4395 158.062 21.2115C157.587 20.9645 156.894 20.841 155.982 20.841C155.26 20.841 154.557 20.917 153.873 21.069C153.189 21.221 152.571 21.411 152.02 21.639C151.773 21.468 151.564 21.2115 151.393 20.8695C151.222 20.5085 151.137 20.138 151.137 19.758C151.137 19.264 151.251 18.8745 151.479 18.5895C151.726 18.2855 152.096 18.029 152.59 17.82C153.141 17.611 153.787 17.459 154.528 17.364C155.288 17.269 156.001 17.2215 156.666 17.2215ZM171.313 31.4715C171.123 31.5285 170.819 31.5855 170.401 31.6425C170.002 31.6995 169.584 31.728 169.147 31.728C168.729 31.728 168.349 31.6995 168.007 31.6425C167.684 31.5855 167.409 31.4715 167.181 31.3005C166.953 31.1295 166.772 30.9015 166.639 30.6165C166.525 30.3125 166.468 29.923 166.468 29.448V20.898C166.468 20.461 166.544 20.0905 166.696 19.7865C166.867 19.4635 167.105 19.1785 167.409 18.9315C167.713 18.6845 168.083 18.466 168.52 18.276C168.976 18.067 169.461 17.8865 169.974 17.7345C170.487 17.5825 171.019 17.4685 171.57 17.3925C172.121 17.2975 172.672 17.25 173.223 17.25C174.135 17.25 174.857 17.4305 175.389 17.7915C175.921 18.1335 176.187 18.7035 176.187 19.5015C176.187 19.7675 176.149 20.0335 176.073 20.2995C175.997 20.5465 175.902 20.7745 175.788 20.9835C175.389 20.9835 174.98 21.0025 174.562 21.0405C174.144 21.0785 173.736 21.1355 173.337 21.2115C172.938 21.2875 172.558 21.373 172.197 21.468C171.855 21.544 171.56 21.639 171.313 21.753V31.4715Z" fill="#E8E7EE"/>
</svg>
